<svg xmlns="http://www.w3.org/2000/svg" viewBox="0 0 884 388" role="img" aria-labelledby="logoTitle logoDesc">
  <title id="logoTitle">Sakthi Dental Clinic logo</title>
  <desc id="logoDesc">Blue tooth icon with Sakthi Dental Clinic text.</desc>
  <rect width="884" height="388" fill="#ffffff"/>
  <path
    d="M190.4 72.3c-39.8 13-63.7 8.3-91.7 1.6-24.3-5.8-43.6-.1-54.9 18.3-14.8 24.1-12.7 65.3-6.1 96.1 8.8 41.2 28.1 88.5 54.5 135.1 2.8 5 11 2.3 10.3-3.4-4.4-37.7 6.6-73.2 29.2-95.1 13.2-12.8 30.4-18.9 49.9-17.6 19.6-1.3 36.8 4.8 50 17.6 22.6 21.9 33.5 57.4 29.2 95.1-.7 5.7 7.5 8.4 10.3 3.4 26.4-46.6 45.7-93.9 54.5-135.1 6.6-30.8 8.7-72-6.1-96.1-11.3-18.4-30.6-24.1-54.9-18.3-28 6.7-51.9 11.4-91.7-1.6l-6-2-6.5 2z"
    fill="none"
    stroke="#2d3cff"
    stroke-width="25"
    stroke-linecap="round"
    stroke-linejoin="round"
  />
  <path
    d="M107 73.5c41.4 24.3 74.2 28.5 103.8-2.8 23.6-25 57-37.7 89.6-15.7"
    fill="none"
    stroke="#2d3cff"
    stroke-width="25"
    stroke-linecap="round"
    stroke-linejoin="round"
  />
  <path
    d="M104.5 320.6c2.8-44.3 22.4-76.8 54.8-89.8 17-6.8 35.3-5.8 51.3 2.4"
    fill="none"
    stroke="#2d3cff"
    stroke-width="25"
    stroke-linecap="round"
    stroke-linejoin="round"
  />
  <text
    x="382"
    y="170"
    fill="#c90818"
    font-family="Arial, Helvetica, sans-serif"
    font-size="104"
    font-weight="800"
    letter-spacing="2"
  >SAKTHI</text>
  <text
    x="425"
    y="247"
    fill="#2d3cff"
    font-family="Georgia, 'Times New Roman', serif"
    font-size="54"
    font-weight="700"
  >Dental Clinic</text>
</svg>
